<!-- Generated by IcoMoon.io -->
<svg version="1.1" xmlns="http://www.w3.org/2000/svg" width="32" height="32" viewBox="0 0 32 32">
<title>arrow-right</title>
<path d="M25.349 16.69l-8.031-8.157c-0.376-0.376-0.376-1.004 0-1.38s1.004-0.376 1.38 0l8.031 8.157c0.376 0.376 0.376 1.004 0 1.38-0.125 0.125-0.376 0.251-0.627 0.251s-0.502-0.125-0.753-0.251z"></path>
<path d="M17.318 24.847c-0.376-0.376-0.376-1.004 0-1.38l8.031-8.157c0.376-0.376 1.004-0.376 1.38 0s0.376 1.004 0 1.38l-8.031 8.157c-0.125 0.125-0.376 0.251-0.627 0.251s-0.502-0.125-0.753-0.251z"></path>
<path d="M4.894 16.063c0-0.627 0.502-1.004 1.004-1.004h19.827c0.502 0 1.004 0.502 1.004 1.004s-0.502 0.878-1.004 0.878h-19.827c-0.502 0-1.004-0.251-1.004-0.878z"></path>
</svg>
