<?xml version="1.0" encoding="utf-8"?>
<!-- Generator: Adobe Illustrator 24.1.2, SVG Export Plug-In . SVG Version: 6.00 Build 0)  -->
<svg version="1.1" id="Layer_1" xmlns="http://www.w3.org/2000/svg" xmlns:xlink="http://www.w3.org/1999/xlink" x="0px" y="0px"
	 viewBox="0 0 25 25" style="enable-background:new 0 0 25 25;" xml:space="preserve">
<style type="text/css">
	.st0{fill:#ff00cc;}
	.st1{fill:#42ef4f;}
	.st2{fill:#cbcb24;}
</style>
<g>
	<path class="st0" d="M6.1,12.5c0.9,1.5,2.8,2,4.3,1.2c0.5-0.3,0.9-0.7,1.2-1.2l0.9-1.6l2.7-4.7c0.6-1,0.6-2.2,0-3.2
		c-0.9-1.5-2.8-2-4.3-1.2C10.4,2.2,10,2.6,9.8,3L6.1,9.3C5.6,10.3,5.6,11.5,6.1,12.5z"/>
	<path class="st1" d="M18,10.9c-1.7,0-3.2,1.4-3.2,3.1c0,0.6,0.1,1.1,0.4,1.6l0.9,1.6l2.7,4.7c0.6,1,1.6,1.6,2.7,1.6
		c1.7,0,3.2-1.4,3.2-3.1c0-0.6-0.1-1.1-0.4-1.6l-3.6-6.3C20.1,11.5,19.1,10.9,18,10.9z"/>
	<path class="st2" d="M3.4,23.5h7.3c1.1,0,2.2-0.6,2.7-1.6c0.9-1.5,0.4-3.4-1.2-4.3c-0.5-0.3-1-0.4-1.6-0.4H3.4
		c-1.1,0-2.2,0.6-2.7,1.6c-0.9,1.5-0.4,3.4,1.2,4.3C2.3,23.4,2.8,23.5,3.4,23.5z"/>
</g>
</svg>
