<svg xmlns="http://www.w3.org/2000/svg" width="25" height="25" viewBox="0 0 25 25">
    <defs>
        <style>
            .prefix__cls-2{fill:none;stroke:#29263d;stroke-linecap:round;stroke-linejoin:round;stroke-width:1.5px}
        </style>
    </defs>
    <g id="prefix__Group_4633" data-name="Group 4633" transform="translate(-322.5 -389.5)">
        <path id="prefix__Rectangle_3303" d="M0 0H24V24H0z" data-name="Rectangle 3303" transform="translate(323 390)" style="opacity:0;fill:none;stroke:#29263d"/>
        <g id="prefix__Group_4632" data-name="Group 4632" transform="translate(-691.281 173.443)">
            <path id="prefix__Path_5389" d="M1029.558 230.005h1.447a3.286 3.286 0 0 1 3.276 3.276 3.286 3.286 0 0 1-3.276 3.277h-9.448a3.286 3.286 0 0 1-3.276-3.277" class="prefix__cls-2" data-name="Path 5389"/>
            <path id="prefix__Path_5390" d="M1024.9 225.306l1.017-1.018a3.286 3.286 0 0 1 4.633 0 3.284 3.284 0 0 1 0 4.633l-6.68 6.681a3.286 3.286 0 0 1-4.633 0" class="prefix__cls-2" data-name="Path 5390"/>
            <rect id="prefix__Rectangle_3305" width="6.552" height="16" class="prefix__cls-2" data-name="Rectangle 3305" rx="3.276" transform="translate(1018.281 220.558)"/>
            <circle id="prefix__Ellipse_1207" cx="1.414" cy="1.414" r="1.414" data-name="Ellipse 1207" transform="translate(1020.143 231.672)" style="fill:#29263d"/>
        </g>
    </g>
</svg>
