<?xml version="1.0" encoding="utf-8"?>
<!-- Generator: Adobe Illustrator 24.1.2, SVG Export Plug-In . SVG Version: 6.00 Build 0)  -->
<svg version="1.1" id="Layer_1" xmlns="http://www.w3.org/2000/svg" xmlns:xlink="http://www.w3.org/1999/xlink" x="0px" y="0px"
	 viewBox="0 0 25 25" style="enable-background:new 0 0 25 25;" xml:space="preserve">
<style type="text/css">
	.st0{fill:#29263D;}
</style>
<g id="Group_143775" transform="translate(-858.5 -88.5)">
	<g id="Group_4519" transform="translate(203.177 -580.206)">
		<g id="Line_624_2_">
			<path class="st0" d="M667.8,685.2c-0.2,0-0.4-0.1-0.5-0.2c-0.3-0.3-0.3-0.8,0-1.1l6.5-6.5c0.3-0.3,0.8-0.3,1.1,0s0.3,0.8,0,1.1
				l-6.5,6.5C668.2,685.1,668,685.2,667.8,685.2z"/>
		</g>
		<g id="Line_625_2_">
			<path class="st0" d="M667.8,685.2c-0.2,0-0.4-0.1-0.5-0.2l-6.5-6.5c-0.3-0.3-0.3-0.8,0-1.1s0.8-0.3,1.1,0l6.5,6.5
				c0.3,0.3,0.3,0.8,0,1.1C668.2,685.1,668,685.2,667.8,685.2z"/>
		</g>
	</g>
</g>
</svg>
