<svg xmlns="http://www.w3.org/2000/svg" width="25" height="25" viewBox="0 0 25 25">
  <g id="Group_143155" data-name="Group 143155" transform="translate(0.5 0.5)">
    <rect id="Rectangle_149586" data-name="Rectangle 149586" width="24" height="24" fill="none" stroke="#29263d" stroke-width="1" opacity="0"/>
    <g id="Group_143152" data-name="Group 143152" transform="translate(3.999 4)">
      <path id="Path_61577" data-name="Path 61577" d="M1612.432,334.5l-7.729,2.072a7.915,7.915,0,0,1,0-4.144Z" transform="translate(-1604.427 -326.496)" fill="#535163"/>
      <path id="Path_61578" data-name="Path 61578" d="M1612.432,334.5l-5.657,5.657a7.957,7.957,0,0,1-2.072-3.585Z" transform="translate(-1604.427 -326.496)" fill="#29263d"/>
      <path id="Path_61579" data-name="Path 61579" d="M1614.5,326.771l-2.072,7.729-2.072-7.729A7.936,7.936,0,0,1,1614.5,326.771Z" transform="translate(-1604.427 -326.496)" fill="#29263d" opacity="0.2"/>
      <path id="Path_61580" data-name="Path 61580" d="M1610.36,326.771l2.072,7.729-5.657-5.657A7.951,7.951,0,0,1,1610.36,326.771Z" transform="translate(-1604.427 -326.496)" fill="#29263d" opacity="0.4"/>
      <path id="Path_61581" data-name="Path 61581" d="M1606.775,328.843l5.657,5.657-7.729-2.072A7.951,7.951,0,0,1,1606.775,328.843Z" transform="translate(-1604.427 -326.496)" fill="#29263d" opacity="0.6"/>
      <path id="Path_61582" data-name="Path 61582" d="M1618.089,328.843l-5.657,5.657,2.072-7.729A7.956,7.956,0,0,1,1618.089,328.843Z" transform="translate(-1604.427 -326.496)" fill="#29263d" opacity="0.1"/>
      <circle id="Ellipse_22987" data-name="Ellipse 22987" cx="7.998" cy="7.998" r="7.998" transform="translate(0.007 0.006)" fill="none" stroke="#29263d" stroke-linecap="round" stroke-linejoin="round" stroke-width="1.5"/>
    </g>
  </g>
</svg>
