<svg xmlns="http://www.w3.org/2000/svg" width="25" height="25" viewBox="0 0 25 25">
    <defs>
        <style>
            .cls-5{fill:#6842ef}.cls-6{fill:#24cbc7}
        </style>
    </defs>
    <g id="Group_5625" transform="translate(.5 .5)">
        <g id="gaming" transform="translate(1.999 .999)">
            <path id="Path_61033" fill="#29263d" d="M39.192 21.377a3.828 3.828 0 0 0-1.4-1.4h-.007l-6.5-3.755-.025-.022a3.823 3.823 0 0 0-3.81.021l-5.769 3.352-.054.031a3.835 3.835 0 0 0-1.9 3.251v.045l-.027 7.475v.014a3.828 3.828 0 0 0 1.9 3.3l.019.012 1.781 1.028 4.722 2.725a3.82 3.82 0 0 0 3.835 0l5.823-3.383h.007a3.824 3.824 0 0 0 1.9-3.293L39.7 23.3v-.014a3.825 3.825 0 0 0-.509-1.9z" transform="translate(-19.701 -15.703)"/>
            <path id="Path_61034" fill="#5c6f8d" d="M33.185 38.109a4.179 4.179 0 0 1-3.593.027l-8-3.735 7.436 4.825a4.179 4.179 0 0 1 1.9 3.284l.47 8.859.624-9.073a4.179 4.179 0 0 1 1.8-3.157l6.611-4.548z" transform="translate(-21.055 -29.104)"/>
            <path id="Path_61035" fill="#ffd600" d="M50.87 29.271c-.912 0-1.65.469-1.65 1.047s.739 1.047 1.65 1.047 1.65-.469 1.65-1.047-.738-1.047-1.65-1.047z" transform="translate(-40.857 -25.427)"/>
            <path id="Path_61036" d="M67.111 57.929c-.517-.259-1.239.137-1.613.885s-.258 1.563.258 1.822S67 60.5 67.37 59.751s.258-1.563-.259-1.822z" class="cls-5" transform="translate(-52.366 -45.91)"/>
            <path id="Path_61037" d="M77.547 65.794c-.517-.259-1.239.137-1.613.885s-.258 1.563.258 1.822 1.239-.137 1.613-.885.258-1.563-.259-1.822z" class="cls-5" transform="translate(-59.846 -51.546)"/>
            <g id="Group_5554" transform="translate(2.024 10.287)">
                <path id="Path_61038" d="M39.813 57.149c.517-.259 1.239.137 1.613.885s.258 1.563-.258 1.822-1.239-.137-1.613-.885-.255-1.563.258-1.822z" class="cls-6" transform="translate(-35.796 -55.637)"/>
                <path id="Path_61039" d="M27.322 65.794c.517-.259 1.239.137 1.613.885s.258 1.563-.258 1.822-1.239-.137-1.613-.885-.258-1.563.259-1.822z" class="cls-6" transform="translate(-26.844 -61.833)"/>
                <path id="Path_61040" d="M27.82 52.093c.517-.259 1.239.137 1.613.885s.258 1.563-.258 1.822-1.239-.137-1.613-.885-.258-1.563.259-1.822z" class="cls-6" transform="translate(-27.201 -52.013)"/>
                <path id="Path_61041" d="M38.658 71.305c.517-.259 1.239.137 1.613.885s.258 1.563-.258 1.822-1.239-.137-1.613-.885-.259-1.563.258-1.822z" class="cls-6" transform="translate(-34.968 -65.783)"/>
            </g>
        </g>
    </g>
</svg>
