<svg xmlns="http://www.w3.org/2000/svg" viewBox="0 0 200 200"><defs><style>.cls-1{fill:#fff;opacity:0;}.cls-2{fill:#0e71b5;}.cls-3{fill:#ec6062;}.cls-4{fill:#ffcb05;}</style></defs><g id="Layer_2" data-name="Layer 2"><g id="Layer_1-2" data-name="Layer 1"><rect class="cls-1" width="200" height="200"/><path class="cls-2" d="M100,186.46A18.5,18.5,0,0,1,81.5,168V32a18.5,18.5,0,1,1,37,0V168A18.5,18.5,0,0,1,100,186.46Z"/><path class="cls-3" d="M161.49,154.39a18.39,18.39,0,0,1-14-2.42L32.68,79.29A18.5,18.5,0,0,1,52.46,48l114.86,72.69a18.5,18.5,0,0,1-5.83,33.68Z"/><path class="cls-4" d="M38.51,154.39a18.39,18.39,0,0,0,14-2.42L167.32,79.29A18.5,18.5,0,0,0,147.54,48L32.68,120.71a18.5,18.5,0,0,0,5.83,33.68Z"/></g></g></svg>