<svg xmlns="http://www.w3.org/2000/svg" width="181.375" height="25.203" viewBox="0 0 181.375 25.203">
    <g>
        <g>
            <path fill="#3c4859" d="M10.45-17.5h3.75V0h-3.75v-1.175A4.671 4.671 0 0 1 6.725.35 5.523 5.523 0 0 1 2.5-1.562 6.689 6.689 0 0 1 .75-6.25a6.689 6.689 0 0 1 1.75-4.688 5.523 5.523 0 0 1 4.225-1.912 4.671 4.671 0 0 1 3.725 1.525zM5.325-4.025a2.908 2.908 0 0 0 2.15.825 2.908 2.908 0 0 0 2.15-.825 3.007 3.007 0 0 0 .825-2.225 3.007 3.007 0 0 0-.825-2.225 2.908 2.908 0 0 0-2.15-.825 2.908 2.908 0 0 0-2.15.825A3.007 3.007 0 0 0 4.5-6.25a3.007 3.007 0 0 0 .825 2.225zM27.65-1.562A6.416 6.416 0 0 1 22.95.35a6.416 6.416 0 0 1-4.7-1.913 6.353 6.353 0 0 1-1.925-4.687 6.353 6.353 0 0 1 1.925-4.688 6.416 6.416 0 0 1 4.7-1.912 6.416 6.416 0 0 1 4.7 1.912 6.353 6.353 0 0 1 1.925 4.688 6.353 6.353 0 0 1-1.925 4.688zM20.9-4.125a2.783 2.783 0 0 0 2.05.825A2.783 2.783 0 0 0 25-4.125a2.876 2.876 0 0 0 .825-2.125A2.876 2.876 0 0 0 25-8.375a2.783 2.783 0 0 0-2.05-.825 2.783 2.783 0 0 0-2.05.825 2.876 2.876 0 0 0-.825 2.125 2.876 2.876 0 0 0 .825 2.125zm18.275-8.725a5.523 5.523 0 0 1 4.225 1.912 6.689 6.689 0 0 1 1.75 4.688 6.689 6.689 0 0 1-1.75 4.688A5.523 5.523 0 0 1 39.175.35a4.671 4.671 0 0 1-3.725-1.525V5H31.7v-17.5h3.75v1.175a4.671 4.671 0 0 1 3.725-1.525zm-2.887 8.825a2.918 2.918 0 0 0 2.138.825 2.918 2.918 0 0 0 2.137-.825A2.981 2.981 0 0 0 41.4-6.25a2.981 2.981 0 0 0-.838-2.225 2.918 2.918 0 0 0-2.137-.825 2.918 2.918 0 0 0-2.138.825 2.981 2.981 0 0 0-.837 2.225 2.981 2.981 0 0 0 .838 2.225zm14.337-.725q.65 1.75 3 1.75a3.1 3.1 0 0 0 2.4-.95l3 1.725A6.282 6.282 0 0 1 53.575.35a6.834 6.834 0 0 1-5.037-1.875A6.384 6.384 0 0 1 46.65-6.25a6.44 6.44 0 0 1 1.862-4.713A6.435 6.435 0 0 1 53.3-12.85a6.03 6.03 0 0 1 4.537 1.887A6.535 6.535 0 0 1 59.65-6.25a7.151 7.151 0 0 1-.15 1.5zm-.075-2.8h5.375a2.49 2.49 0 0 0-2.65-1.975A2.537 2.537 0 0 0 50.55-7.55zM61.775 0v-18.25h3.75V0zM76.15-12.5h4L75.875-.375a8.757 8.757 0 0 1-2.762 4.225A6.566 6.566 0 0 1 68.75 5V1.5a3.623 3.623 0 0 0 2-.462 3.169 3.169 0 0 0 1.125-1.613L66.9-12.5h4.125L73.8-4.85z" transform="translate(-98 -32.999) translate(0 -4.748) translate(131 56.999)"/>
            <path fill="#d7d7d7" d="M-62.1.35a6.4 6.4 0 0 1-4.738-1.9 6.406 6.406 0 0 1-1.887-4.7 6.406 6.406 0 0 1 1.887-4.7 6.4 6.4 0 0 1 4.738-1.9 6.5 6.5 0 0 1 3.313.875A6.2 6.2 0 0 1-56.45-9.65l-3.275 1.9a2.456 2.456 0 0 0-2.425-1.4 2.722 2.722 0 0 0-2.025.813 2.85 2.85 0 0 0-.8 2.088 2.85 2.85 0 0 0 .8 2.088 2.722 2.722 0 0 0 2.025.812 2.426 2.426 0 0 0 2.425-1.4l3.275 1.875a6.171 6.171 0 0 1-2.325 2.35A6.478 6.478 0 0 1-62.1.35zm17.6-1.913A6.416 6.416 0 0 1-49.2.35a6.416 6.416 0 0 1-4.7-1.913 6.353 6.353 0 0 1-1.925-4.687 6.353 6.353 0 0 1 1.925-4.688 6.416 6.416 0 0 1 4.7-1.912 6.416 6.416 0 0 1 4.7 1.912 6.353 6.353 0 0 1 1.925 4.688A6.353 6.353 0 0 1-44.5-1.562zm-6.75-2.562a2.783 2.783 0 0 0 2.05.825 2.783 2.783 0 0 0 2.05-.825 2.876 2.876 0 0 0 .825-2.125 2.876 2.876 0 0 0-.825-2.125A2.783 2.783 0 0 0-49.2-9.2a2.783 2.783 0 0 0-2.05.825 2.876 2.876 0 0 0-.825 2.125 2.876 2.876 0 0 0 .825 2.125zM-40.45 0v-18.25h3.75V0zm17.2-1.562A6.416 6.416 0 0 1-27.95.35a6.416 6.416 0 0 1-4.7-1.913 6.353 6.353 0 0 1-1.925-4.687 6.353 6.353 0 0 1 1.925-4.688 6.416 6.416 0 0 1 4.7-1.912 6.416 6.416 0 0 1 4.7 1.912 6.353 6.353 0 0 1 1.925 4.688 6.353 6.353 0 0 1-1.925 4.688zM-30-4.125a2.783 2.783 0 0 0 2.05.825 2.783 2.783 0 0 0 2.05-.825 2.876 2.876 0 0 0 .825-2.125 2.876 2.876 0 0 0-.825-2.125 2.783 2.783 0 0 0-2.05-.825 2.783 2.783 0 0 0-2.05.825 2.876 2.876 0 0 0-.825 2.125A2.876 2.876 0 0 0-30-4.125zm14.55-6.15a3.072 3.072 0 0 1 1.413-1.837 4.458 4.458 0 0 1 2.337-.638v4.25a3.757 3.757 0 0 0-2.562.462A2.527 2.527 0 0 0-15.45-5.65V0h-3.75v-12.5h3.75zm8.675 1.425q0 .375.638.613t1.537.475a13.9 13.9 0 0 1 1.8.613 3.644 3.644 0 0 1 1.538 1.236A3.539 3.539 0 0 1-.625-3.75a3.483 3.483 0 0 1-1.5 3.063A6.348 6.348 0 0 1-5.825.35q-3.95 0-5.375-2.975l3.25-1.85A2.037 2.037 0 0 0-5.825-3q1.35 0 1.35-.775 0-.375-.637-.625a14.183 14.183 0 0 0-1.538-.488 12.826 12.826 0 0 1-1.8-.625 3.85 3.85 0 0 1-1.537-1.212 3.212 3.212 0 0 1-.637-2.025 3.581 3.581 0 0 1 1.413-3.025 5.59 5.59 0 0 1 3.486-1.075 5.856 5.856 0 0 1 2.825.688 5.272 5.272 0 0 1 2.05 1.987l-3.2 1.725a1.845 1.845 0 0 0-1.675-1.1q-1.05 0-1.05.7z" transform="translate(-98 -32.999) translate(0 -4.748) translate(280 56.999)"/>
        </g>
        <g>
            <path fill="#ffd600" d="M12089.293 11379.806a3.6 3.6 0 0 0 6.235 0l1.039-1.8 3.119-5.4a3.6 3.6 0 0 0 0-3.6 3.6 3.6 0 0 0-6.237 0l-4.156 7.2a3.6 3.6 0 0 0 0 3.6z" transform="translate(-98 -32.999) translate(-11958.297 -11334.206) translate(-26.27)"/>
            <path fill="#6842ef" d="M12146.514 11423.455a3.6 3.6 0 0 0-3.119 5.4l1.039 1.8 3.119 5.4a3.6 3.6 0 0 0 3.117 1.8 3.6 3.6 0 0 0 3.119-5.4l-4.158-7.2a3.6 3.6 0 0 0-3.117-1.8z" transform="translate(-98 -32.999) translate(-11958.297 -11334.206) translate(-69.979 -45.449)"/>
            <path fill="#24cbc7" d="M12059.9 11468.156h8.317a3.6 3.6 0 0 0 3.118-1.8 3.6 3.6 0 0 0-3.118-5.4h-8.317a3.6 3.6 0 0 0-3.118 1.8 3.6 3.6 0 0 0 3.118 5.4z" transform="translate(-98 -32.999) translate(-11958.297 -11334.206) translate(0 -75.748)"/>
        </g>
    </g>
</svg>
