<svg xmlns="http://www.w3.org/2000/svg" width="25" height="25" viewBox="0 0 25 25">
    <defs>
        <style>
            .prefix__cls-2{fill:none;stroke:#29263d;stroke-linecap:round;stroke-linejoin:round;stroke-width:1.5px}
        </style>
    </defs>
    <g id="prefix__Group_4548" data-name="Group 4548" transform="translate(-570.5 -88.5)">
        <path id="prefix__Rectangle_3213" d="M0 0H24V24H0z" data-name="Rectangle 3213" transform="translate(571 89)" style="opacity:0;fill:none;stroke:#29263d"/>
        <g id="prefix__Group_4516" data-name="Group 4516" transform="translate(203.177 -580.206)">
            <path id="prefix__Path_5324" d="M380.838 673.238v.022a.842.842 0 0 1 .837.766l.1 1.115a6.091 6.091 0 0 1 .993.408l.859-.712a.83.83 0 0 1 .541-.2.857.857 0 0 1 .6.246l1.432 1.433a.843.843 0 0 1 .054 1.111l-.711.86a6.491 6.491 0 0 1 .412 1l1.105.1a.842.842 0 0 1 .765.838v2.013a.837.837 0 0 1-.765.838l-1.1.1a6.1 6.1 0 0 1-.412 1.008l.7.851a.838.838 0 0 1-.049 1.133l-1.432 1.433a.848.848 0 0 1-1.136.054l-.846-.7a6.556 6.556 0 0 1-1.007.417l-.1 1.1a.841.841 0 0 1-.837.766h-2.03a.836.836 0 0 1-.837-.766l-.1-1.1a6.556 6.556 0 0 1-1.007-.417l-.85.7a.844.844 0 0 1-1.132-.054l-1.434-1.427a.843.843 0 0 1-.054-1.093l.707-.851a6.66 6.66 0 0 1-.416-1.008l-1.1-.1a.838.838 0 0 1-.766-.84v-2.029a.842.842 0 0 1 .765-.838l1.11-.1a6.494 6.494 0 0 1 .412-1l-.711-.86a.843.843 0 0 1 .054-1.133l1.45-1.456a.854.854 0 0 1 .577-.246.821.821 0 0 1 .537.2l.859.712a6.456 6.456 0 0 1 .993-.408l.107-1.115a.843.843 0 0 1 .836-.771z" class="prefix__cls-2" data-name="Path 5324"/>
            <path id="prefix__Path_5325" d="M379.819 678.567a2.683 2.683 0 1 0 2.3 1.3" class="prefix__cls-2" data-name="Path 5325"/>
        </g>
    </g>
</svg>
