<svg xmlns="http://www.w3.org/2000/svg" width="25" height="25" viewBox="0 0 25 25">
  <g id="Group_143807" data-name="Group 143807" transform="translate(-912.5 -354.5)">
    <rect id="Rectangle_3285" data-name="Rectangle 3285" width="24" height="24" transform="translate(913 355)" fill="none" stroke="#29263d" stroke-width="1" opacity="0"/>
    <path id="_41.-camera" data-name=" 41.-camera" d="M802.281,256.266v-8.672a1.666,1.666,0,0,1,1.666-1.666h2.193a1.667,1.667,0,0,0,1.478-.894l.108-.207a1.665,1.665,0,0,1,1.477-.895h1.982a1.667,1.667,0,0,1,1.477.88l.109.207a1.667,1.667,0,0,0,1.477.9H816.6a1.665,1.665,0,0,1,1.68,1.651v8.7a1.662,1.662,0,0,1-1.661,1.662H803.947a1.662,1.662,0,0,1-1.666-1.657Zm8-7.689a3.294,3.294,0,1,0,3.294,3.294A3.294,3.294,0,0,0,810.281,248.577Z" transform="translate(114.719 116.068)" fill="none" stroke="#29263d" stroke-linecap="round" stroke-linejoin="round" stroke-width="1.5"/>
  </g>
</svg>
